# xmcd
#
# Track frame offsets:
#	182
#	9635
#	19195
#	29242
#	42762
#	53150
#	62982
#	77702
#	87542
#	97090
#	108720
#	118545
#	128755
#	139095
#	145522
#	155197
#	164737
#	174680
#	189577
#	199597
#	209680
#	219947
#	229885
#	241722
#	252332
#	262175
#	272475
#	283337
#
# Disc length: 3914 seconds
#
# Revision: 1
# Processed by: cddbd v1.5.1PL0 Copyright (c) Steve Scherf et al.
# Submitted via: audiograbber 1.82.02
#
DISCID=b10f481c
DTITLE=Graham Townsend - Graham Townsend's 100 Fiddle Hits
DYEAR=1900
DGENRE=
TTITLE0=Crooked Stovepipe - Arkansas Traveler - Old Joe Clark - Soldier's Joy
TTITLE1=The Girl I Left Behind - Joys Of Quebec - Logger'sBreakdown - Ragtime A
TTITLE1=nnie
TTITLE2=Down Yonder - Kingdom Come - Mitton's Breakdown - Rubber Dolly
TTITLE3=Debbie's Waltz - Black Velvet Waltz - Country Waltz - Tennessee Waltz
TTITLE4=Wilson's Clog - Gray's Second Chance - Whalens Breakdown - Big John McN
TTITLE4=eil
TTITLE5=Bonnie Dundee - Major Mackie - First Western Change - Blackthorn Stick
TTITLE6=Orange Blossom Special
TTITLE7=Patronella - Rakes Of Mallow - Don Messer's Breakdown - Liberty Two Ste
TTITLE7=p
TTITLE8=Back Up And Push - Turkey In The Straw - Eighth Of January - Sugarfoot 
TTITLE8=Rag
TTITLE9=Road To The Isles - Cock O' The North - Smash The Window - Scotland The
TTITLE9=Brave
TTITLE10=Up Jumped The Devil - Rickett's Hornpipe - Bowin' The Strings
TTITLE11=Mississippi Sawyer - Old Barndance - My Little Girl - Climbing Up The 
TTITLE11=Golden Stairs - Spanish Cavalero
TTITLE12=Maytime Swing - Devil's Dream - Swamplake Breakdown - Chinese Breakdow
TTITLE12=n
TTITLE13=Maple Sugar
TTITLE14=Pigeon On The Pier - The Wind That Shakes The Barley - Wake Up Susan -
TTITLE14=Plaza Polka
TTITLE15=Fisher's Hornpipe - Sailor's Hornpipe - Old Man And Old Woman - Miss M
TTITLE15=cCloud's Reel
TTITLE16=Rippling Water Jig - Old Red Barn - Rock Valley Jig - Hundred Pipers
TTITLE17=Norwegian Waltz - Waltz Quadrille - Over The Waves - Peek-A-Boo Waltz
TTITLE18=Flowers Of Edinburgh - Chicken Reel - Sally Goodin - Flop Eared Mule
TTITLE19=Road To Boston - Redwing - Dusty Miller's Reel - Silvery Bells
TTITLE20=Mocking Bird - Snowflake Breakdown
TTITLE21=Angus Campbell - Tennessee Wagoner - Lightning Hornpipe
TTITLE22=Hi-Lo Schottische - Rochester Schottische - Buffalo Gals - Golden Slip
TTITLE22=pers
TTITLE23=Bill Cheatum - Ste. Anne's Reel - High Level Hornpipe - Cripple Creek
TTITLE24=Uncle Jim - Joys Of Wedlock - Bride Of The Wind - Haste To The Wedding
TTITLE25=Texas Quickstep - Kiley's Reel - Snow Deer - Lorn McDonnald's Reel
TTITLE26=Little Brown Jug - Darling Nelly Gray - Circassion Circle - Boil The C
TTITLE26=abbage Down
TTITLE27=Draggin' The Bow
EXTD=
EXTT0=
EXTT1=
EXTT2=
EXTT3=
EXTT4=
EXTT5=
EXTT6=
EXTT7=
EXTT8=
EXTT9=
EXTT10=
EXTT11=
EXTT12=
EXTT13=
EXTT14=
EXTT15=
EXTT16=
EXTT17=
EXTT18=
EXTT19=
EXTT20=
EXTT21=
EXTT22=
EXTT23=
EXTT24=
EXTT25=
EXTT26=
EXTT27=
PLAYORDER=
